<?xml version="1.0" standalone="no"?>
<!DOCTYPE svg PUBLIC "-//W3C//DTD SVG 20010904//EN" "http://www.w3.org/TR/2001/REC-SVG-20010904/DTD/svg10.dtd">
<svg version="1.0" xmlns="http://www.w3.org/2000/svg"
  width="1024.000000pt" height="1024.000000pt" viewBox="0 0 1024.000000 1024.000000"
  preserveAspectRatio="xMidYMid meet">

  <g transform="translate(0.000000,1024.000000) scale(0.100000,-0.100000)"
    fill="#0d6efd" stroke="none">
    <path
      d="M5070 9314 c-99 -27 -164 -82 -210 -178 -51 -104 -49 -201 6 -311 14
-27 37 -62 51 -77 l26 -28 -17 -292 c-14 -250 -49 -800 -72 -1140 -5 -77 -10
-99 -23 -102 -9 -3 -200 -37 -426 -76 -458 -79 -450 -78 -487 -97 -46 -22 -60
-64 -56 -158 2 -50 8 -88 17 -98 12 -15 55 -17 427 -17 246 0 415 -4 419 -9 7
-12 21 -432 35 -1046 6 -253 15 -653 21 -889 5 -235 8 -430 6 -432 -2 -2 -75
5 -161 17 -91 11 -168 16 -180 12 -12 -4 -123 -61 -246 -127 -124 -65 -306
-161 -405 -213 -246 -130 -370 -200 -388 -221 -17 -18 -127 -260 -292 -640
-51 -117 -104 -228 -117 -247 -12 -19 -96 -103 -185 -185 -134 -124 -164 -158
-173 -190 -6 -21 -55 -227 -111 -457 -55 -230 -126 -522 -159 -649 -66 -258
-79 -339 -60 -374 8 -15 70 -50 187 -106 l174 -84 2373 0 2372 0 83 40 c46 22
130 68 188 102 l105 61 -5 49 c-4 27 -53 207 -111 401 -58 194 -119 406 -136
472 -25 94 -39 129 -65 160 -18 22 -112 134 -208 249 -170 203 -176 211 -207
300 -127 364 -296 829 -315 866 -29 57 -37 64 -235 205 -91 65 -203 150 -250
189 -47 39 -144 111 -215 159 l-130 87 -215 25 c-118 14 -217 25 -220 25 -3 0
-4 30 -3 68 2 37 10 414 18 837 9 424 20 928 25 1120 5 193 10 367 10 388 l0
37 419 0 420 0 15 22 c11 16 16 46 16 101 0 86 -14 124 -54 150 -14 9 -133 35
-283 62 -629 110 -615 107 -623 129 -5 12 -16 129 -25 261 -56 860 -75 1156
-75 1198 0 40 6 56 34 90 68 84 81 122 81 232 0 90 -3 106 -28 155 -38 74 -88
123 -156 153 -75 34 -133 40 -201 21z" />
  </g>
</svg>